# xmcd
# Copyright (C) 1995-1998 Ti Kan
#
# Track frame offsets:
#       150
#       11257
#       14675
#       38880
#       62005
#
# Disc length: 982 seconds
#
# Revision: 0
# Processed by: cddbd v1.5.2PL0 Copyright (c) Steve Scherf et al.
# Submitted via: CD-Transfer v1.0
#
DISCID=3503d405
DTITLE=Hebulete - 
DYEAR=1900
DGENRE=
TTITLE0=Patwa Bax - Patois Einführung
TTITLE1=Keh Sämi Ohni Cläsh
TTITLE2=Red Red Wine
TTITLE3=Superunknown
TTITLE4=The Denial Twist (Ws)
EXTD=
EXTT0=
EXTT1=
EXTT2=
EXTT3=
EXTT4=
PLAYORDER=
